<svg width="1280" height="159" viewBox="0 0 1280 159" fill="none" xmlns="http://www.w3.org/2000/svg">
<path d="M0 2L16.3 3.70001C32.7 5.30001 65.3 8.70001 98.2 14.2C131 19.7 164 27.3 196.8 27.3C229.7 27.3 262.3 19.7 295.2 13.2C328 6.70001 361 1.3 393.8 5C426.7 8.7 459.3 21.3 492.2 23.5C525 25.7 558 17.3 590.8 17.8C623.7 18.3 656.3 27.7 689.2 29.7C722 31.7 755 26.3 787.8 24.2C820.7 22 853.3 23 886.2 20.8C919 18.7 952 13.3 984.8 14.2C1017.7 15 1050.3 22 1083.2 27.3C1116 32.7 1149 36.3 1181.8 31.5C1214.7 26.7 1247.3 13.3 1263.7 6.70001L1280 0V160H1263.7C1247.3 160 1214.7 160 1181.8 160C1149 160 1116 160 1083.2 160C1050.3 160 1017.7 160 984.8 160C952 160 919 160 886.2 160C853.3 160 820.7 160 787.8 160C755 160 722 160 689.2 160C656.3 160 623.7 160 590.8 160C558 160 525 160 492.2 160C459.3 160 426.7 160 393.8 160C361 160 328 160 295.2 160C262.3 160 229.7 160 196.8 160C164 160 131 160 98.2 160C65.3 160 32.7 160 16.3 160H0V2Z" fill="#69B578"/>
<path d="M0 62L16.3 62.3C32.7 62.7 65.3 63.3 98.2 66.3C131 69.3 164 74.7 196.8 77.2C229.7 79.7 262.3 79.3 295.2 74.5C328 69.7 361 60.3 393.8 58C426.7 55.7 459.3 60.3 492.2 61.8C525 63.3 558 61.7 590.8 62.7C623.7 63.7 656.3 67.3 689.2 64.8C722 62.3 755 53.7 787.8 52.5C820.7 51.3 853.3 57.7 886.2 61.2C919 64.7 952 65.3 984.8 66.8C1017.7 68.3 1050.3 70.7 1083.2 69.2C1116 67.7 1149 62.3 1181.8 60.2C1214.7 58 1247.3 59 1263.7 59.5L1280 60V160H1263.7C1247.3 160 1214.7 160 1181.8 160C1149 160 1116 160 1083.2 160C1050.3 160 1017.7 160 984.8 160C952 160 919 160 886.2 160C853.3 160 820.7 160 787.8 160C755 160 722 160 689.2 160C656.3 160 623.7 160 590.8 160C558 160 525 160 492.2 160C459.3 160 426.7 160 393.8 160C361 160 328 160 295.2 160C262.3 160 229.7 160 196.8 160C164 160 131 160 98.2 160C65.3 160 32.7 160 16.3 160H0V62Z" fill="#457F54"/>
<path d="M0 100L16.3 102C32.7 104 65.3 108 98.2 109.8C131 111.7 164 111.3 196.8 112.5C229.7 113.7 262.3 116.3 295.2 115C328 113.7 361 108.3 393.8 107.3C426.7 106.3 459.3 109.7 492.2 112.3C525 115 558 117 590.8 114.7C623.7 112.3 656.3 105.7 689.2 103.2C722 100.7 755 102.3 787.8 105.5C820.7 108.7 853.3 113.3 886.2 115.3C919 117.3 952 116.7 984.8 116.7C1017.7 116.7 1050.3 117.3 1083.2 116.5C1116 115.7 1149 113.3 1181.8 109.5C1214.7 105.7 1247.3 100.3 1263.7 97.7L1280 95V160H1263.7C1247.3 160 1214.7 160 1181.8 160C1149 160 1116 160 1083.2 160C1050.3 160 1017.7 160 984.8 160C952 160 919 160 886.2 160C853.3 160 820.7 160 787.8 160C755 160 722 160 689.2 160C656.3 160 623.7 160 590.8 160C558 160 525 160 492.2 160C459.3 160 426.7 160 393.8 160C361 160 328 160 295.2 160C262.3 160 229.7 160 196.8 160C164 160 131 160 98.2 160C65.3 160 32.7 160 16.3 160H0V100Z" fill="#254D32"/>
</svg>
